<?xml version="1.0" standalone="no"?>
<!DOCTYPE svg PUBLIC "-//W3C//DTD SVG 20010904//EN"
 "http://www.w3.org/TR/2001/REC-SVG-20010904/DTD/svg10.dtd">
<svg version="1.0" xmlns="http://www.w3.org/2000/svg"
 width="984.618966pt" height="429.977797pt" viewBox="0 0 984.618966 429.977797"
 preserveAspectRatio="xMidYMid meet">
<metadata>
Created by potrace 1.12, written by Peter Selinger 2001-2015
</metadata>
<g transform="translate(-22.168064,444.977797) scale(0.100000,-0.100000)"
fill="#000000" stroke="none">
<path d="M8544 4432 c-21 -18 -195 -218 -208 -239 -4 -7 0 -23 9 -36 14 -22
14 -24 -8 -34 -21 -10 -32 -3 -113 67 l-89 79 -32 -19 c-25 -15 -32 -16 -35
-5 -2 10 -40 2 -154 -34 -82 -26 -156 -51 -162 -55 -13 -8 -16 -74 -6 -125 5
-24 12 -31 30 -31 14 0 24 -6 24 -14 0 -9 -18 -16 -54 -20 -30 -4 -71 -16 -92
-27 -21 -10 -40 -19 -41 -19 -2 0 -3 26 -3 58 0 168 -163 266 -384 233 -129
-20 -280 -87 -357 -158 l-27 -24 61 -102 c75 -128 79 -132 105 -118 16 8 23 8
29 -1 4 -7 56 -123 115 -258 59 -135 110 -244 115 -243 42 7 213 68 231 82
l23 17 -20 74 c-12 40 -19 75 -17 78 3 2 21 -12 41 -32 22 -22 54 -41 80 -48
l45 -12 -4 -136 c-4 -139 -1 -126 10 38 7 116 23 122 73 27 18 -36 35 -64 38
-62 2 3 -10 31 -27 63 -16 32 -30 61 -30 65 0 5 76 47 122 67 5 2 8 -12 8 -32
0 -20 5 -36 10 -36 35 0 205 33 221 43 15 10 19 23 19 74 0 36 4 63 10 63 6 0
92 -41 191 -91 173 -86 182 -89 205 -75 21 14 23 24 26 102 l3 85 55 19 c30
11 57 19 59 20 2 0 1 -20 -2 -44 l-6 -43 110 -18 c84 -14 116 -15 134 -7 22
10 27 8 41 -13 13 -20 20 -23 35 -15 16 9 19 5 25 -25 3 -19 9 -35 12 -35 3 0
59 -10 125 -21 142 -26 167 -20 167 36 0 27 4 35 18 35 9 0 28 3 41 7 23 6 24
5 18 -35 -8 -46 -8 -46 83 -57 73 -10 88 -19 92 -57 3 -30 7 -33 78 -55 87
-26 100 -27 123 -10 16 11 110 278 201 570 20 65 39 124 42 131 6 15 -225 72
-252 62 -9 -4 -21 0 -28 8 -6 8 -73 28 -150 46 -128 29 -140 30 -162 15 -22
-14 -24 -21 -22 -88 l3 -72 -40 -5 c-22 -4 -55 -14 -73 -24 -18 -9 -36 -15
-41 -12 -4 3 -11 31 -15 62 -3 30 -11 89 -17 130 l-11 74 -97 0 c-70 0 -103
-4 -117 -15 -13 -10 -45 -14 -104 -15 -96 0 -130 -15 -130 -55 0 -31 -17 -41
-38 -21 -24 21 -86 46 -117 46 -44 0 -28 18 55 61 52 27 77 45 72 53 -53 84
-107 156 -116 156 -6 0 -20 -8 -32 -18z m68 -101 l27 -38 -82 -42 c-78 -39
-107 -49 -107 -35 0 14 117 152 130 153 3 0 17 -17 32 -38z m-599 -158 c-9 -3
-13 -31 -13 -89 0 -111 7 -111 85 4 26 39 51 72 55 72 3 0 19 -13 35 -30 16
-16 34 -30 39 -30 6 0 -6 17 -27 36 -21 20 -36 38 -33 41 3 3 32 -20 65 -52
l59 -58 -32 -35 c-17 -20 -57 -64 -88 -99 -32 -34 -58 -67 -58 -72 0 -5 10
-13 23 -16 12 -4 41 -15 64 -26 24 -10 47 -19 52 -19 5 0 19 -16 31 -34 21
-36 124 -96 162 -96 14 0 18 -8 18 -40 0 -22 -5 -40 -10 -40 -6 0 -96 43 -201
96 -135 68 -193 93 -198 85 -5 -7 -7 -57 -7 -111 1 -109 0 -110 -59 -110 -49
0 -61 55 -28 121 28 55 24 144 -10 204 -23 39 -30 68 -35 135 l-7 85 -28 -3
c-24 -3 -28 0 -25 19 2 16 14 25 47 35 25 7 48 11 53 8 4 -3 8 -1 8 3 0 10 62
31 70 24 3 -2 -1 -6 -7 -8z m1113 -40 c-4 -36 -1 -90 8 -142 14 -80 14 -86 -5
-112 -10 -15 -19 -33 -19 -41 0 -8 -4 -18 -9 -23 -5 -6 -12 -29 -16 -52 -5
-34 -4 -44 9 -49 9 -3 16 -14 16 -23 0 -14 -2 -14 -10 -1 -8 13 -10 13 -10 -1
0 -19 45 -88 69 -106 31 -24 46 -13 16 12 -16 13 -24 24 -17 25 6 0 12 -4 12
-10 0 -5 11 -12 24 -16 24 -6 44 -44 24 -44 -25 0 -138 24 -139 29 -2 16 -7
55 -19 144 -7 54 -16 95 -21 90 -4 -4 -16 -29 -26 -55 -10 -25 -22 -47 -28
-48 -5 -1 -23 30 -39 69 -16 39 -33 71 -38 71 -17 0 -29 -45 -29 -115 0 -54
-4 -75 -13 -75 -18 0 -119 19 -123 24 -2 2 2 27 8 57 7 36 21 65 41 85 l29 31
-23 15 -22 15 18 114 c27 175 17 159 97 159 69 0 69 0 68 -27 -2 -24 -2 -25
-6 -5 -4 20 -9 22 -66 20 l-62 -2 57 -3 56 -4 13 -72 c11 -64 14 -69 21 -42 6
24 7 22 3 -14 -6 -76 20 -26 34 64 18 109 22 115 78 115 l46 0 -7 -57z m-1760
26 c32 -6 64 -15 69 -21 7 -8 4 -9 -10 -3 -11 4 -45 9 -75 11 l-55 3 57 -9
c32 -5 71 -16 87 -24 42 -22 89 -84 100 -131 7 -31 9 -34 10 -13 1 37 -16 78
-47 111 -25 27 -23 40 3 13 90 -89 65 -213 -67 -338 l-71 -67 29 -112 c15 -62
34 -117 41 -124 9 -10 7 -14 -10 -22 -42 -20 -80 -34 -82 -31 -2 2 -21 44 -43
93 -22 50 -51 115 -65 145 -14 30 -36 82 -50 115 -14 33 -39 88 -55 122 l-29
62 -28 -15 c-23 -12 -30 -12 -37 -2 -4 7 -23 41 -43 74 l-35 61 68 31 c92 41
162 63 173 56 6 -3 15 -1 22 4 10 9 36 16 73 21 6 0 37 -4 70 -10z m651 -106
c-2 -21 -4 -4 -4 37 0 41 2 58 4 38 2 -21 2 -55 0 -75z m545 69 c-9 -6 0 -14
29 -27 23 -11 48 -26 56 -34 13 -12 16 -12 24 0 5 9 9 10 9 2 0 -13 -34 -56
-105 -131 -56 -60 -71 -82 -55 -82 5 0 10 5 10 10 0 6 9 10 21 10 11 0 37 11
57 25 20 14 41 25 47 25 5 0 3 -5 -5 -10 -12 -9 -8 -16 24 -44 23 -19 36 -38
32 -45 -11 -17 -74 -47 -139 -66 -150 -44 -283 59 -263 203 3 24 13 56 22 71
23 39 91 81 131 81 18 0 33 5 33 10 0 6 19 10 43 10 25 0 37 -4 29 -8z m961
-16 c31 3 35 2 17 -4 -22 -7 -17 -10 38 -24 34 -9 62 -12 62 -8 0 5 -12 11
-27 13 -26 4 -25 4 5 6 33 1 33 0 31 -36 -1 -21 -1 -51 0 -68 l3 -30 9 30 c7
24 7 22 3 -14 -2 -24 3 -77 12 -118 20 -90 34 -86 59 20 37 157 45 177 68 176
21 0 21 -1 2 -8 -17 -7 -14 -10 20 -19 74 -19 85 -20 79 -11 -3 5 -16 9 -29 9
-13 0 -27 5 -30 10 -3 6 4 10 17 9 30 -1 54 -12 52 -24 -2 -24 -17 -65 -23
-65 -4 0 -8 -10 -8 -22 -1 -13 -7 -33 -13 -45 -5 -13 -14 -33 -19 -45 -15 -40
-86 -262 -87 -278 -1 -8 -11 -40 -22 -72 -11 -31 -18 -59 -15 -62 10 -10 -25
-7 -67 6 l-40 13 0 172 c0 104 -4 174 -10 178 -6 4 -10 -9 -10 -32 0 -28 -3
-34 -10 -23 -6 10 -7 3 -3 -24 3 -23 2 -37 -3 -34 -5 4 -9 -14 -10 -38 0 -24
-6 -49 -12 -57 -6 -7 -8 -24 -5 -36 6 -23 5 -24 -43 -16 -27 4 -52 9 -56 11
-11 7 4 89 18 97 8 4 26 29 41 55 24 40 28 58 28 124 0 65 -3 81 -25 110 -20
27 -24 43 -22 86 3 47 1 52 -17 52 -22 0 -25 8 -14 36 4 10 8 13 10 7 2 -6 21
-9 46 -7z m-375 -86 l0 -35 -9 40 c-4 22 -8 49 -7 60 0 16 2 15 8 -5 4 -14 8
-41 8 -60z m14 -65 c3 -14 1 -25 -3 -25 -5 0 -9 11 -9 25 0 14 2 25 4 25 2 0
6 -11 8 -25z m-909 -77 c-2 -5 -18 -1 -35 8 l-30 16 28 30 29 29 6 -38 c4 -21
5 -41 2 -45z m1141 71 c-19 -7 -19 -8 1 -10 11 -1 28 -2 38 -1 21 2 80 -75 70
-92 -5 -7 -9 -3 -13 9 -7 26 -40 75 -51 75 -5 0 3 -16 16 -36 14 -20 25 -43
25 -50 0 -8 5 -14 10 -14 16 0 11 -48 -10 -95 -50 -110 -200 -153 -279 -82
-29 27 -51 77 -51 117 0 69 70 163 130 175 13 2 24 6 26 7 1 2 26 4 55 4 34 0
46 -2 33 -7z m-1594 -39 c-16 -5 -19 -8 -8 -9 23 -1 85 -57 94 -84 7 -22 8
-22 14 3 4 16 7 0 7 -40 0 -111 -56 -191 -154 -220 -179 -53 -277 178 -129
307 42 38 70 46 161 49 33 2 36 1 15 -6z m76 -32 l29 -33 -30 25 c-16 14 -34
28 -39 32 -6 5 -6 8 0 8 6 0 23 -15 40 -32z m829 -3 c16 -13 27 -26 25 -29 -3
-2 -21 9 -40 25 -19 16 -30 29 -25 29 6 -1 23 -12 40 -25z m-546 -16 c17 -6
31 -16 31 -21 0 -7 -4 -7 -12 -1 -7 6 -26 15 -43 21 -16 6 -25 11 -19 11 6 1
25 -4 43 -10z m152 -99 c5 0 9 -6 9 -12 0 -7 -14 2 -30 20 -17 18 -30 38 -30
45 0 6 10 -3 21 -20 12 -18 25 -33 30 -33z m-902 -137 c20 -76 20 -96 1 -38
-21 62 -23 75 -15 75 2 0 9 -17 14 -37z"/>
<path d="M8570 4343 c1 -14 30 -47 36 -41 6 7 -17 48 -28 48 -5 0 -8 -3 -8 -7z"/>
<path d="M8220 4091 c0 -12 29 -35 36 -28 4 3 -1 13 -9 22 -17 17 -27 19 -27
6z"/>
<path d="M9058 4173 c12 -2 30 -2 40 0 9 3 -1 5 -23 4 -22 0 -30 -2 -17 -4z"/>
<path d="M7313 3990 c-22 -9 -33 -40 -15 -40 5 0 9 -15 10 -32 0 -18 6 -34 11
-36 6 -2 11 -12 11 -22 0 -10 5 -22 10 -25 6 -3 10 -17 10 -31 0 -35 17 -30
66 20 39 38 44 48 44 89 0 37 -5 49 -26 66 -28 22 -82 27 -121 11z m82 -56
c18 -18 17 -75 -1 -81 -10 -3 -34 58 -34 86 0 16 16 14 35 -5z"/>
<path d="M8429 4022 c-27 -24 -33 -37 -35 -78 -1 -27 3 -55 8 -61 11 -14 48
-18 48 -5 1 4 28 36 60 72 33 36 60 68 60 72 0 13 -39 28 -74 28 -25 0 -45 -9
-67 -28z m82 -29 c-5 -10 -23 -31 -40 -47 -26 -25 -31 -27 -37 -13 -9 26 4 65
24 70 9 3 27 5 40 6 19 1 21 -2 13 -16z"/>
<path d="M9270 3903 c-39 -37 -50 -98 -23 -131 18 -23 103 -44 103 -26 0 5 13
15 28 22 36 16 54 49 50 93 l-3 34 -15 -30 c-18 -36 -53 -44 -81 -19 -25 23
-24 48 4 67 l22 16 -27 0 c-17 1 -40 -10 -58 -26z"/>
<path d="M7708 3875 c-30 -17 -68 -73 -68 -102 0 -30 36 -71 68 -78 48 -10
122 41 135 93 8 32 -1 52 -19 45 -9 -3 -13 -12 -10 -19 3 -8 -3 -18 -14 -24
-26 -14 -66 3 -75 31 -6 18 -1 28 21 46 25 20 26 23 9 23 -11 -1 -32 -7 -47
-15z m37 -173 c-6 -7 -65 19 -65 28 0 4 16 0 35 -8 19 -9 32 -18 30 -20z"/>
<path d="M238 4288 c-20 -38 -22 -212 -3 -308 9 -47 21 -106 25 -132 24 -133
121 -354 215 -488 106 -151 278 -275 473 -342 l97 -33 200 1 c214 0 236 3 525
79 200 52 435 23 566 -70 63 -45 89 -74 96 -105 2 -13 -15 -15 -112 -16 -99 0
-126 -4 -195 -28 -176 -62 -326 -185 -421 -346 -132 -222 -211 -570 -217 -956
l-2 -112 -48 -44 c-26 -25 -47 -51 -47 -60 0 -16 70 -68 91 -68 8 0 10 -33 7
-117 l-5 -118 -65 -135 c-36 -74 -82 -184 -103 -245 -33 -93 -38 -122 -39
-197 0 -74 3 -92 21 -115 19 -26 25 -28 87 -26 58 1 80 8 169 51 68 33 138 80
210 137 l107 86 103 -21 c57 -13 182 -27 286 -33 l183 -12 39 -45 c22 -25 67
-98 100 -163 69 -132 93 -157 152 -157 71 0 144 56 191 148 26 50 75 218 82
279 7 54 18 68 29 34 9 -30 77 -71 116 -71 69 1 100 27 149 125 67 134 85 214
84 365 -1 205 -34 311 -152 488 -36 54 -40 67 -44 138 -3 57 -12 96 -31 137
-24 54 -28 57 -62 57 -20 0 -59 -12 -87 -26 l-50 -26 5 39 c23 151 29 280 20
371 -24 217 -91 327 -312 510 -69 58 -107 136 -166 342 -53 185 -56 193 -131
305 -51 78 -205 228 -311 304 -51 37 -212 130 -273 158 -148 67 -373 122 -585
143 -250 24 -463 69 -635 134 -117 44 -189 88 -251 154 -28 28 -54 52 -59 52
-5 0 -15 -10 -22 -22z m172 -133 c19 -14 30 -25 24 -25 -10 0 -73 49 -63 50 3
0 20 -11 39 -25z m-150 -140 c0 -19 -2 -35 -4 -35 -2 0 -6 16 -8 35 -2 19 0
35 4 35 4 0 8 -16 8 -35z m655 -27 c39 -7 73 -16 76 -21 4 -5 11 -7 17 -3 14
8 289 -20 417 -44 247 -46 489 -154 669 -299 38 -31 83 -67 101 -81 64 -50
183 -198 224 -277 11 -23 34 -91 50 -151 33 -120 63 -202 109 -302 30 -65 55
-141 48 -147 -2 -2 -14 13 -26 34 -13 21 -37 53 -54 71 -19 21 -24 31 -13 27
22 -9 22 -3 -4 46 -23 45 -118 141 -164 165 -163 86 -240 107 -395 105 -84 0
-128 -7 -220 -31 -260 -71 -454 -98 -601 -84 -74 7 -239 54 -319 91 -142 67
-273 184 -362 323 -83 129 -101 165 -143 289 -33 97 -32 104 2 86 15 -8 31
-11 36 -8 6 4 8 -2 5 -15 -5 -18 -3 -19 11 -10 24 15 167 -15 189 -39 39 -43
72 -55 139 -51 53 2 67 0 78 -15 11 -15 14 -15 25 -2 14 17 35 21 25 5 -8 -13
25 -1 45 16 13 11 30 10 98 -5 45 -11 84 -15 87 -11 6 10 -1 15 -37 24 -33 7
-36 21 -8 29 16 4 18 11 14 43 -10 78 -26 114 -48 112 -41 -3 -136 23 -136 37
0 8 5 17 11 20 6 4 8 13 5 20 -5 14 14 25 42 25 15 0 15 -2 2 -10 -20 -13 -12
-12 33 4 l39 13 -59 6 c-32 4 -76 14 -98 22 -43 17 -49 18 90 -7z m-637 -88
l0 -25 -8 25 c-4 14 -8 36 -8 50 l0 25 8 -25 c4 -14 8 -36 8 -50z m522 -135
c17 -9 30 -18 30 -21 0 -4 -59 23 -69 32 -10 9 13 3 39 -11z m1670 -927 c0 -4
-6 -5 -14 -2 -8 3 -12 12 -9 21 5 12 7 12 14 1 5 -7 9 -16 9 -20z m-34 -13
c66 -39 132 -105 161 -162 27 -52 48 -50 47 5 0 23 3 42 7 42 15 0 118 -91
172 -152 62 -69 108 -155 131 -244 16 -65 24 -160 13 -170 -4 -4 -7 2 -7 14 0
11 -11 34 -25 49 l-25 28 -20 -24 c-41 -48 -91 -261 -105 -448 l-8 -93 31 0
c24 0 34 7 52 37 75 127 91 362 28 425 -18 18 -18 21 -3 44 29 44 48 26 72
-70 23 -94 6 -252 -36 -342 -16 -34 -27 -65 -24 -68 7 -7 -93 -203 -153 -299
-27 -44 -77 -115 -112 -159 -34 -44 -55 -75 -46 -70 9 5 35 5 64 -1 98 -19
116 2 83 96 -17 47 -17 50 1 80 65 108 169 311 187 365 11 34 24 62 29 62 16
0 127 -89 176 -141 56 -60 156 -208 187 -278 34 -78 57 -191 57 -287 0 -96
-18 -213 -30 -194 -6 9 -9 9 -15 0 -4 -7 -2 -16 5 -20 16 -10 -3 -98 -33 -150
-11 -19 -29 -52 -39 -72 -11 -21 -23 -38 -26 -38 -3 0 -2 3 1 6 3 4 2 15 -3
24 -7 14 -6 17 8 16 13 -1 16 6 14 26 -1 14 2 29 8 33 6 4 7 -1 3 -11 -11 -29
14 -7 31 28 9 17 16 32 16 34 0 1 -21 5 -47 8 -27 3 -77 9 -113 14 -64 9 -66
8 -91 -20 -26 -28 -29 -44 -15 -86 4 -13 12 -20 19 -16 7 4 9 4 5 -1 -11 -12
29 -38 45 -29 6 4 4 -2 -6 -12 -17 -19 -19 -18 -52 21 -41 47 -45 82 -12 122
28 34 87 149 93 181 6 32 -12 19 -20 -14 -8 -29 -55 -102 -79 -122 -12 -10
-16 -2 -27 50 -15 75 -33 113 -22 48 13 -80 6 -320 -11 -375 -8 -27 -24 -79
-35 -115 -24 -83 -52 -138 -90 -173 -29 -28 -30 -28 -63 -12 -23 12 -49 16
-90 13 l-57 -4 -29 60 c-39 83 -137 232 -162 245 -11 6 -62 11 -114 11 -117 0
-280 16 -369 35 -104 23 -112 21 -191 -43 -99 -81 -154 -117 -239 -157 -75
-36 -98 -42 -98 -25 0 17 -77 50 -116 50 l-37 0 6 68 c8 97 38 184 128 378
l80 172 6 107 c5 95 9 110 30 131 12 13 23 34 23 47 0 32 -19 88 -37 109 -12
13 -15 49 -14 162 0 205 37 462 87 621 69 214 84 248 161 357 90 128 227 232
364 276 35 12 71 23 79 26 8 2 51 5 96 5 74 1 84 -1 140 -34z m463 -762 c12
-34 13 -48 2 -82 -15 -51 -27 -52 -40 -3 -12 42 -14 76 -5 110 9 32 27 22 43
-25z m251 -310 c11 -36 20 -81 20 -100 l0 -35 -61 57 c-34 31 -79 68 -100 82
-22 14 -39 27 -39 29 0 2 15 11 33 21 42 22 99 32 114 20 7 -5 22 -39 33 -74z
m-297 1 c9 -10 -25 -64 -40 -64 -16 0 -17 42 -1 58 13 13 31 16 41 6z m-133
-510 c8 -29 9 -49 3 -55 -12 -12 -43 -1 -43 16 0 7 -5 15 -12 17 -8 3 -6 14 7
36 11 18 22 32 26 32 3 0 12 -20 19 -46z m540 -528 c0 -2 -7 -9 -15 -16 -12
-10 -15 -10 -15 4 0 9 7 16 15 16 8 0 15 -2 15 -4z m-47 -133 c4 -2 5 -9 2
-14 -8 -12 -105 -12 -105 1 0 23 69 32 103 13z m-1802 -229 c25 -22 10 -34
-46 -34 -45 0 -65 13 -65 43 0 17 5 19 45 14 25 -2 55 -13 66 -23z m1357 -150
c41 -17 35 -26 -26 -39 -50 -10 -112 36 -64 48 33 9 53 7 90 -9z"/>
<path d="M1463 3643 c4 -3 58 -12 120 -19 269 -31 593 -192 728 -361 25 -32
65 -93 88 -135 37 -67 61 -101 61 -85 0 2 -22 46 -48 96 -57 107 -112 174
-208 253 -159 130 -505 258 -697 258 -28 0 -47 -3 -44 -7z"/>
<path d="M2137 2291 c-72 -64 -124 -206 -133 -366 -5 -81 -3 -94 18 -134 21
-41 28 -45 98 -67 81 -26 141 -32 75 -9 -22 8 -41 15 -43 15 -2 0 13 19 32 42
55 63 79 137 77 234 -1 119 -32 193 -90 215 -19 8 -30 4 -57 -16 -40 -31 -42
-27 -10 23 65 103 163 94 219 -19 63 -126 64 -326 1 -484 -7 -17 -6 -18 8 -7
9 7 23 43 33 80 50 200 19 383 -83 495 -37 39 -99 38 -145 -2z m80 -172 c5
-53 -14 -93 -45 -97 -29 -4 -45 37 -39 102 9 95 74 91 84 -5z m-59 -326 c5
-36 -32 -49 -79 -27 -52 23 -50 42 4 47 64 6 72 4 75 -20z"/>
<path d="M2715 1625 c-3 -8 -7 -21 -9 -29 -3 -10 -33 -16 -103 -22 -124 -11
-170 -7 -210 18 -20 12 -33 15 -33 8 0 -6 21 -20 46 -32 42 -18 59 -19 158
-13 150 9 153 10 158 51 4 36 1 45 -7 19z"/>
<path d="M3206 1420 c15 -100 23 -195 17 -222 -4 -22 -3 -29 5 -24 19 11 14
133 -8 211 -11 39 -17 54 -14 35z"/>
<path d="M1674 1190 c-25 -10 -49 -46 -56 -84 -7 -37 25 -72 77 -82 94 -17
134 104 53 160 -25 18 -42 19 -74 6z m36 -95 c0 -8 -9 -15 -20 -15 -20 0 -26
11 -13 23 12 13 33 7 33 -8z"/>
<path d="M2354 1124 c-31 -15 -54 -50 -54 -82 1 -25 20 -45 68 -72 40 -23 45
-23 70 -9 58 32 49 146 -14 169 -32 13 -33 13 -70 -6z m84 -24 c29 -27 29 -83
2 -110 -11 -11 -24 -20 -28 -20 -20 0 -42 29 -57 75 -15 46 -15 50 1 62 26 19
57 16 82 -7z"/>
<path d="M1541 1097 c-1 -9 15 -58 36 -107 36 -89 152 -259 182 -268 10 -3 7
5 -7 24 -77 100 -137 205 -200 344 -8 18 -11 20 -11 7z"/>
<path d="M1978 1044 c-55 -29 -63 -87 -20 -134 40 -45 88 -50 131 -14 31 25
33 31 28 73 -8 76 -73 111 -139 75z m122 -78 c0 -17 -18 -41 -26 -34 -3 4 -13
0 -21 -8 -36 -36 -46 35 -11 74 l23 23 17 -21 c10 -12 18 -27 18 -34z"/>
<path d="M2572 832 c-32 -49 -66 -122 -57 -122 2 0 16 22 29 49 14 26 36 62
50 79 28 32 32 42 17 42 -5 0 -23 -21 -39 -48z"/>
<path d="M4180 4001 c-49 -10 -76 -27 -142 -84 -102 -89 -138 -211 -90 -305
13 -23 31 -48 42 -54 16 -10 19 -21 15 -53 l-5 -40 11 33 c8 26 14 32 27 27 9
-4 25 -10 35 -12 9 -3 17 -14 17 -26 0 -21 -64 -107 -80 -107 -5 0 -11 17 -13
38 l-4 37 -1 -42 c-2 -49 11 -62 39 -37 10 9 21 15 23 13 2 -2 16 -42 31 -89
51 -164 78 -221 167 -348 52 -74 46 -159 -16 -237 l-24 -29 -36 27 c-27 21
-36 35 -36 57 0 38 -16 80 -31 80 -6 0 -29 -16 -51 -35 -24 -22 -46 -34 -56
-31 -126 37 -146 33 -137 -28 7 -43 7 -44 -28 -55 -20 -7 -41 -19 -48 -28 -11
-13 -8 -20 25 -50 l38 -36 -31 -24 c-41 -32 -39 -46 9 -68 30 -14 39 -23 34
-34 -19 -46 -16 -56 28 -76 60 -28 104 -96 111 -175 3 -32 15 -79 28 -104 34
-69 137 -133 243 -151 l38 -6 -4 -42 c-3 -23 -23 -78 -45 -122 -83 -165 -132
-255 -156 -287 -47 -62 -107 -193 -122 -263 -36 -171 -1 -329 92 -421 62 -61
122 -93 243 -130 145 -45 163 -53 174 -86 12 -35 -9 -104 -44 -139 -14 -14
-68 -42 -122 -63 -97 -38 -128 -59 -128 -89 0 -28 32 -101 51 -118 29 -26 167
-41 346 -37 l162 3 36 35 c60 58 141 169 195 268 55 102 55 100 3 170 -13 17
-21 37 -18 42 10 17 98 11 160 -10 32 -11 119 -32 194 -47 124 -25 155 -28
361 -28 176 1 245 5 315 19 204 40 247 96 122 159 -77 39 -79 42 -61 116 16
72 34 259 34 369 0 77 -11 112 -35 112 -22 0 -144 -165 -205 -278 -30 -56 -60
-102 -67 -102 -16 0 -133 97 -135 113 0 7 -2 57 -2 112 -1 78 -7 114 -25 165
-30 83 -73 169 -103 206 -52 65 -52 56 2 124 28 35 49 70 48 79 -2 10 -34 21
-98 36 -52 12 -95 25 -95 28 0 4 32 32 70 63 84 67 215 192 215 206 0 5 -10
18 -22 28 l-22 18 63 71 c84 95 112 117 158 125 63 10 71 20 49 56 -18 32 -18
32 8 59 33 35 33 45 -5 71 -16 12 -28 25 -25 27 3 3 20 -5 38 -18 18 -14 47
-33 63 -42 29 -18 29 -18 8 0 -11 10 -38 31 -58 47 -29 22 -35 33 -31 52 5 20
0 27 -44 49 l-50 25 7 45 c7 58 -11 66 -78 35 l-49 -23 -37 26 c-45 32 -57 25
-79 -50 -13 -43 -23 -59 -54 -79 -43 -29 -56 -26 -104 24 l-28 30 12 154 c18
218 9 507 -16 573 -45 115 -218 175 -458 160 l-104 -7 -53 49 c-90 81 -144
145 -182 213 -47 84 -66 104 -136 139 -46 24 -76 31 -142 35 -46 3 -100 1
-119 -3z m229 -33 c71 -27 122 -75 167 -156 53 -97 75 -124 161 -194 l77 -63
131 3 c148 4 243 -12 323 -52 65 -33 90 -69 101 -148 20 -147 7 -547 -25 -749
-14 -89 -19 -105 -42 -123 -55 -43 -116 -102 -144 -141 -26 -36 -40 -43 -131
-72 -96 -31 -146 -42 -102 -23 l20 9 -20 1 c-15 1 -13 4 8 10 16 5 34 7 40 6
7 -1 9 -1 5 1 -5 3 -8 12 -8 21 0 15 -2 15 -10 2 -7 -12 -10 -12 -10 -1 0 7
12 22 26 33 15 12 23 26 19 35 -4 11 0 14 12 9 16 -5 16 -4 -1 9 -13 10 -24
11 -37 5 -27 -15 -35 -12 -13 6 10 8 13 13 7 9 -7 -3 -13 -1 -13 4 0 6 5 11
10 11 6 0 10 4 10 9 0 5 -9 7 -21 4 -11 -3 -18 -11 -15 -19 3 -8 0 -11 -10 -7
-13 5 -11 10 7 29 l22 24 -21 0 c-12 0 -22 -5 -22 -11 0 -5 -5 -7 -12 -3 -6 4
-8 3 -4 -4 3 -5 -9 -30 -27 -54 -18 -23 -48 -68 -66 -98 -19 -30 -39 -59 -46
-65 -6 -5 -29 -34 -51 -63 -21 -30 -61 -69 -88 -89 -55 -39 -194 -91 -268
-100 -61 -7 -151 12 -214 46 -62 33 -114 114 -114 176 l1 40 25 -30 c68 -80
96 -103 145 -118 64 -21 99 -21 174 -1 151 39 267 158 390 399 41 81 154 276
166 285 3 3 11 15 18 28 7 12 16 20 21 17 6 -3 7 1 4 9 -8 21 -9 21 60 -14 32
-17 67 -30 77 -30 37 0 18 18 -40 40 -65 24 -145 85 -135 102 4 6 2 8 -3 5 -6
-4 -22 8 -36 27 -48 62 -137 221 -132 234 3 7 1 11 -4 8 -5 -3 -25 33 -45 80
-21 46 -49 106 -64 132 -15 26 -34 60 -42 76 -8 16 -37 54 -65 84 -27 31 -49
58 -47 61 1 2 -3 6 -10 7 -7 2 -36 9 -63 17 -49 13 -52 13 -85 -10 -19 -13
-41 -21 -48 -18 -7 3 -10 1 -7 -5 7 -12 -32 -33 -47 -24 -7 4 -8 3 -4 -4 7
-12 -5 -16 -31 -13 -7 1 -13 -3 -13 -8 0 -12 -69 -33 -83 -24 -6 3 -7 1 -3 -5
10 -16 5 -15 -48 8 -76 32 -120 120 -100 198 7 23 7 23 21 2 23 -33 32 -23 16
19 -14 37 -14 40 10 78 26 41 90 99 137 124 64 33 185 32 279 -3z m68 -370
c13 -12 23 -31 23 -42 -1 -26 -51 -118 -67 -124 -18 -5 -18 159 -1 176 16 16
18 16 45 -10z m-312 -425 c-6 -24 10 -41 19 -21 3 7 3 3 0 -9 -3 -14 -1 -23 6
-23 6 0 8 -5 5 -11 -8 -12 -38 26 -40 50 -1 9 -7 26 -14 39 -6 12 -9 27 -6 32
3 6 1 10 -5 10 -6 0 -8 5 -5 10 3 6 1 10 -4 10 -6 0 -11 12 -10 28 0 23 5 17
30 -33 17 -35 27 -69 24 -82z m65 -122 c0 -8 -1 -12 -3 -10 -1 2 -11 15 -22
28 l-20 24 23 -14 c12 -8 22 -20 22 -28z m40 -65 c0 -5 -9 -1 -20 9 -11 10
-20 22 -20 26 0 5 9 1 20 -8 11 -10 20 -22 20 -27z m1520 -269 l0 -54 40 -12
c49 -14 53 -21 38 -62 -10 -30 -9 -34 15 -54 33 -26 33 -30 2 -67 -24 -29 -25
-32 -10 -54 21 -32 14 -40 -40 -49 -51 -7 -71 -24 -205 -173 -96 -107 -218
-214 -233 -206 -7 4 -9 3 -4 -1 9 -11 -42 -65 -61 -65 -7 0 -12 -6 -9 -12 2
-7 9 -12 15 -11 10 2 19 -34 38 -140 6 -35 77 -145 103 -162 6 -3 8 -11 5 -17
-4 -7 -2 -8 4 -4 25 15 147 -233 140 -284 -2 -16 -1 -27 4 -24 14 9 9 -98 -7
-161 -43 -166 -158 -284 -306 -316 -29 -6 -70 -22 -91 -35 -21 -13 -41 -23
-45 -22 -5 0 -19 -3 -33 -9 -46 -19 -174 -34 -292 -34 -92 0 -139 6 -216 25
-169 43 -331 114 -315 138 3 7 1 8 -6 4 -6 -4 -29 6 -52 25 -40 32 -64 34 -38
3 8 -10 31 -30 52 -45 29 -21 34 -28 21 -33 -36 -14 -152 4 -182 27 -10 8 -16
7 -21 -2 -11 -18 -58 55 -87 134 -27 74 -32 171 -13 270 10 57 60 170 94 218
17 22 17 22 11 -8 -3 -16 -8 -52 -11 -80 -4 -37 3 -23 24 55 19 68 55 159 103
255 41 83 83 171 93 197 l18 48 29 -88 c31 -92 86 -202 120 -239 l21 -22 36
27 c111 86 377 225 524 274 72 24 109 30 170 30 42 0 77 2 77 6 0 15 -16 27
-39 30 -14 1 -33 10 -43 19 -15 13 -16 19 -5 32 10 14 10 14 -4 4 -20 -16 -40
3 -70 71 -18 41 -21 63 -17 128 8 128 33 156 362 410 59 45 75 63 80 90 3 19
12 43 19 53 13 17 15 16 55 -6 38 -22 42 -23 59 -7 17 16 58 36 76 37 4 1 7
-23 7 -52z m-1625 -41 c14 -20 14 -29 4 -47 -11 -22 -12 -22 -19 -4 -25 72
-17 100 15 51z m599 -65 c16 -18 17 -24 6 -51 -7 -16 -16 -30 -21 -30 -6 0
-39 95 -39 114 0 10 33 -10 54 -33z m-225 -5 c10 -9 23 -16 29 -16 18 0 84
-39 114 -67 14 -14 31 -22 37 -19 15 10 14 -7 -3 -29 -13 -18 -15 -18 -46 8
-69 58 -86 27 -49 -87 20 -61 20 -65 4 -90 -21 -32 -35 -33 -65 -1 -12 13 -40
36 -62 51 -56 39 -63 26 -40 -85 l19 -92 -56 -26 c-47 -21 -67 -24 -126 -20
-38 2 -82 10 -97 17 -62 29 -106 150 -94 257 7 61 36 132 62 153 10 8 15 10
11 4 -3 -6 15 0 41 12 26 13 52 24 58 24 6 0 18 7 25 16 19 23 211 15 238 -10z
m-448 -58 c22 -27 23 -37 8 -75 -13 -35 -23 -20 -33 50 -8 52 -3 58 25 25z
m595 -99 c13 -15 13 -21 -2 -53 -10 -20 -21 -36 -25 -36 -7 0 -49 114 -49 133
0 10 56 -22 76 -44z m-634 -82 c31 -28 37 -39 42 -89 5 -46 3 -58 -8 -58 -30
0 -58 37 -76 102 -25 89 -17 97 42 45z m430 -19 c7 -7 35 -30 61 -52 l49 -39
-38 -38 c-21 -22 -41 -39 -45 -39 -11 0 -36 72 -44 128 -7 55 -5 60 17 40z
m633 -160 c0 -109 14 -156 63 -210 19 -21 32 -41 29 -44 -3 -3 -56 -21 -119
-39 -125 -38 -322 -131 -468 -224 -52 -33 -96 -58 -98 -57 -1 2 2 23 7 47 6
24 10 58 10 74 0 25 -2 27 -8 10 -5 -11 -12 -45 -16 -75 -10 -72 -14 -77 -37
-43 -46 67 -135 291 -125 316 3 8 27 17 58 21 28 4 84 22 123 41 39 18 72 33
73 32 1 -1 -7 -34 -18 -72 -10 -38 -19 -74 -18 -80 0 -13 59 136 59 151 0 7
23 35 52 62 36 35 72 58 118 75 64 24 300 105 310 106 3 1 5 -41 5 -91z m-876
-72 c33 -9 61 -19 61 -21 0 -3 -71 3 -107 11 -29 6 -116 86 -103 94 6 4 28
-10 49 -30 26 -25 58 -42 100 -54z m1931 -1416 c0 -25 -20 -39 -78 -54 -54
-14 -54 -13 -20 36 16 23 16 27 4 22 -12 -5 -15 0 -14 20 1 14 6 26 11 26 4 0
5 4 2 10 -3 5 17 -2 45 -17 31 -16 50 -32 50 -43z m-1725 -325 c-104 -73 -105
-75 -105 -124 0 -26 5 -52 12 -59 14 -14 -9 -16 -60 -6 -36 7 -62 52 -62 107
0 50 50 78 144 83 37 1 71 5 74 8 3 3 8 6 11 6 3 0 -3 -7 -14 -15z m91 -14 c5
1 21 1 37 0 l27 -1 -31 -42 c-28 -39 -30 -48 -26 -95 l6 -53 -79 0 c-75 0 -78
1 -88 28 -27 68 -26 76 20 114 53 43 85 61 98 53 6 -3 10 0 10 7 0 11 2 11 9
0 4 -7 12 -12 17 -11z m235 -26 c11 -4 22 -18 25 -33 4 -15 11 -33 16 -39 7
-9 2 -23 -18 -45 -15 -18 -31 -32 -36 -31 -4 2 -8 -1 -8 -6 0 -5 -37 -8 -82
-7 l-82 1 -12 47 c-11 45 -11 49 17 87 l29 39 66 -4 c37 -2 75 -6 85 -9z"/>
<path d="M4221 3835 c-43 -50 -41 -77 3 -36 12 10 35 23 51 28 42 13 46 43 7
43 -22 0 -39 -10 -61 -35z"/>
<path d="M5135 3473 c-16 -9 -43 -27 -59 -40 -27 -23 -33 -23 -126 -17 -62 4
-99 3 -103 -4 -24 -37 84 -307 152 -380 17 -19 28 -39 25 -45 -4 -7 -4 -9 1
-5 11 11 35 -11 29 -26 -3 -7 6 -21 18 -32 l23 -19 -17 21 c-36 41 -17 37 30
-7 48 -46 88 -69 121 -69 11 0 21 -7 25 -15 3 -8 10 -15 16 -15 6 0 4 7 -4 16
-18 18 -11 38 11 30 8 -3 11 -1 8 5 -4 5 -2 15 3 22 5 7 19 38 31 70 26 72 28
173 4 240 -17 46 -17 50 0 62 9 7 17 16 17 20 0 4 -7 2 -15 -5 -13 -11 -15 -4
-15 50 0 68 -20 122 -54 145 -27 19 -83 18 -121 -2z m114 -17 c14 -15 26 -46
33 -87 22 -128 -40 -357 -116 -428 l-26 -24 -26 24 c-14 13 -39 41 -56 62
l-30 37 26 31 c54 64 96 185 96 276 0 45 -4 55 -25 69 -24 16 -24 18 -8 29 22
15 72 33 94 34 8 1 26 -10 38 -23z m-136 -80 c-3 -42 -30 -78 -56 -74 -33 5
-34 47 -2 82 32 35 61 31 58 -8z"/>
<path d="M4910 2741 c-13 -25 -13 -42 1 -18 5 9 14 17 19 17 5 0 7 -8 4 -17
-5 -14 -4 -15 4 -4 11 15 5 41 -9 41 -4 0 -13 -9 -19 -19z"/>
<path d="M5188 2433 c6 -2 12 -9 12 -14 0 -6 -4 -8 -9 -4 -5 3 -13 0 -16 -6
-12 -18 0 -19 24 -2 18 12 20 17 10 24 -8 5 -18 8 -24 8 -5 0 -4 -3 3 -6z"/>
<path d="M5055 1695 c-70 -15 -205 -62 -288 -98 -46 -21 -61 -33 -72 -61 -23
-54 -19 -73 31 -149 74 -113 113 -204 178 -428 31 -104 49 -128 120 -164 47
-24 63 -27 107 -22 29 4 57 11 63 17 13 13 24 13 29 -2 2 -7 3 -5 2 4 -2 9 6
25 17 35 30 26 62 82 76 130 12 40 19 304 9 320 -3 5 -19 69 -36 142 -29 125
-30 136 -15 153 9 9 33 21 53 24 20 4 43 10 51 15 27 15 -34 10 -80 -6 -24 -8
-46 -13 -49 -9 -3 3 -13 24 -21 47 -25 66 -59 77 -175 52z m128 -17 c17 -14
73 -196 103 -338 11 -53 18 -130 18 -205 0 -103 -3 -130 -24 -190 -28 -77 -81
-139 -126 -148 -68 -13 -170 45 -204 115 -22 47 -53 158 -45 166 3 3 5 1 5 -5
0 -5 7 -10 15 -10 8 0 14 7 13 16 -2 9 3 15 10 13 7 -1 22 2 32 8 14 7 33 7
66 -1 30 -8 48 -9 53 -2 9 15 101 27 101 14 0 -21 19 -11 36 18 9 16 23 27 30
24 23 -9 9 77 -34 212 -24 72 -53 148 -65 170 -23 40 -23 40 -82 40 l-60 0 0
45 c0 44 0 44 45 56 60 16 93 17 113 2z m-178 -65 c-4 -27 -8 -49 -8 -49 -1
-1 -28 -9 -59 -18 -32 -9 -64 -19 -71 -22 -19 -7 -27 16 -18 56 6 30 12 35 71
56 94 32 94 32 85 -23z m-174 -55 c-6 -40 -10 -45 -60 -71 -62 -32 -77 -26
-67 27 6 30 15 40 54 61 70 36 79 34 73 -17z"/>
<path d="M4080 1167 c0 -58 5 -83 25 -124 14 -28 33 -54 42 -57 12 -5 13 -2 7
11 -29 68 -54 155 -54 196 0 26 -4 47 -10 47 -6 0 -10 -31 -10 -73z"/>
<path d="M7796 3265 c14 -33 34 -76 45 -95 38 -72 129 -273 129 -287 0 -34 27
8 44 69 10 35 24 83 32 108 7 25 19 69 25 99 13 63 20 57 50 -43 11 -38 23
-74 25 -81 3 -7 -19 -40 -48 -73 -76 -85 -143 -217 -158 -315 -16 -96 -8 -290
15 -372 16 -56 16 -63 -1 -112 -10 -30 -32 -68 -52 -88 l-36 -35 -21 20 c-30
28 -38 25 -30 -11 5 -20 3 -34 -4 -38 -8 -6 -7 -19 3 -49 17 -47 12 -51 -24
-21 -31 25 -98 69 -105 69 -3 0 4 -18 15 -40 29 -56 25 -62 -25 -40 -48 21
-52 18 -30 -20 21 -37 19 -40 -31 -40 -41 0 -45 -2 -34 -15 11 -13 8 -20 -15
-45 -15 -16 -33 -39 -39 -52 -6 -12 -20 -25 -31 -27 -11 -2 -34 -15 -52 -28
-29 -22 -36 -24 -64 -14 -18 6 -33 11 -35 11 -1 0 6 -18 17 -40 24 -49 24 -53
-2 -40 -25 14 -36 6 -21 -13 23 -27 -1 -25 -48 4 -26 16 -53 29 -59 29 -7 0
13 -31 44 -69 30 -37 55 -73 55 -79 0 -7 -27 -1 -66 14 -37 14 -71 23 -75 22
-5 -2 4 -18 21 -36 16 -18 30 -36 30 -39 0 -3 -18 -3 -40 -1 -22 2 -40 1 -40
-1 0 -3 9 -15 21 -27 l20 -22 -31 -63 c-41 -81 -61 -134 -69 -184 l-6 -39
-120 -18 c-66 -9 -142 -17 -170 -17 -27 -1 -66 -5 -85 -10 -19 -5 -64 -12
-100 -15 -61 -5 -64 -5 -45 10 11 9 34 22 52 30 17 7 34 18 37 23 3 5 18 12
32 15 40 10 130 74 113 80 -43 15 -98 26 -126 26 -18 0 -33 4 -33 9 0 4 32 23
70 40 39 18 68 36 66 40 -3 4 -51 13 -108 20 -57 7 -109 15 -115 17 -7 2 -13
0 -13 -5 0 -4 41 -14 90 -20 58 -8 90 -17 90 -25 0 -7 -27 -25 -60 -39 -33
-15 -60 -31 -60 -36 0 -5 21 -12 48 -15 130 -18 132 -28 15 -92 -49 -26 -104
-58 -123 -72 l-35 -24 90 6 c50 3 135 12 190 20 55 9 145 17 200 18 l100 3 -2
-30 c-4 -53 18 -218 39 -285 35 -115 120 -310 168 -389 41 -66 78 -81 198 -81
71 1 106 6 131 18 57 28 60 44 23 111 -34 62 -40 96 -19 103 6 3 37 6 67 7
101 4 358 39 417 56 18 6 24 1 36 -26 32 -74 121 -131 238 -154 116 -22 216
-20 257 5 41 25 41 51 -2 84 -63 48 -57 70 50 186 88 96 111 189 76 307 -12
37 -37 90 -56 117 l-35 50 34 37 c38 43 84 127 95 176 20 86 -18 233 -77 304
-14 16 -23 32 -20 36 3 3 55 14 114 25 59 10 149 33 198 51 84 29 99 32 220
32 122 -1 141 -3 311 -48 100 -25 222 -63 270 -83 109 -44 173 -44 211 0 32
37 38 69 24 131 -21 94 -73 184 -168 290 -117 131 -163 170 -266 228 -99 55
-152 106 -161 151 -7 37 -54 188 -72 231 -7 17 -17 43 -23 58 -36 93 -166 243
-278 318 -146 98 -251 124 -468 117 -105 -3 -141 -9 -185 -27 -90 -37 -160
-74 -198 -107 -79 -66 -77 -67 -113 51 -18 58 -36 105 -40 105 -8 0 -39 -92
-59 -175 -20 -82 -41 -145 -49 -145 -4 0 -25 37 -46 83 -78 171 -134 283 -149
302 -9 12 -5 -5 10 -40z m664 -126 c12 -8 9 -9 -10 -4 -19 5 -22 4 -10 -4 8
-6 27 -11 42 -11 69 0 78 -36 18 -76 -32 -21 -44 -24 -67 -17 -36 12 -41 38
-12 69 20 21 20 24 5 30 -14 5 -15 9 -4 15 17 11 20 11 38 -2z m-137 -169 c6
-22 0 -25 -22 -11 -7 5 -10 14 -7 20 11 17 23 13 29 -9z m87 -44 c8 -2 -11 -4
-43 -5 -32 0 -56 3 -53 7 4 7 57 6 96 -2z m104 -31 c11 -8 29 -12 39 -9 12 4
17 2 13 -4 -7 -11 17 -23 37 -18 6 1 8 1 3 -2 -5 -3 6 -13 25 -23 69 -37 11
-17 -76 26 -49 24 -83 44 -75 44 8 0 24 -6 34 -14z m195 -14 c-20 -16 -59 -18
-59 -4 0 3 9 3 20 0 10 -3 24 1 31 9 6 8 16 14 21 14 6 0 0 -8 -13 -19z m-277
-2 c75 -15 101 -25 201 -82 141 -79 192 -153 357 -519 60 -133 60 -132 185
-148 135 -17 196 -30 295 -62 92 -29 277 -114 390 -179 49 -27 62 -30 112 -26
l56 5 11 -43 c17 -66 13 -93 -14 -120 -32 -33 -87 -33 -180 0 -96 34 -276 89
-355 108 -222 53 -297 53 -441 4 -57 -20 -160 -46 -229 -58 -113 -20 -135 -21
-229 -11 -58 7 -107 10 -109 7 -10 -10 57 -28 125 -33 70 -4 74 -6 112 -47 47
-51 81 -149 81 -235 0 -46 -7 -72 -35 -128 -37 -74 -95 -135 -123 -130 -10 2
-28 26 -41 53 -21 43 -25 65 -25 155 -1 81 3 113 17 139 20 39 20 41 8 41 -13
0 -39 -71 -47 -127 -12 -94 23 -249 64 -279 23 -16 11 -157 -18 -213 -11 -23
-19 -48 -17 -54 6 -18 55 92 68 151 6 30 9 65 6 78 -5 30 4 30 30 2 37 -40 72
-124 79 -186 9 -89 -14 -157 -77 -226 -28 -31 -56 -56 -62 -56 -6 0 -3 6 7 13
16 12 16 14 2 26 -9 8 -16 20 -16 28 0 19 -45 13 -46 -7 -3 -32 -4 -35 -12
-24 -4 8 -21 9 -47 5 -31 -5 -41 -11 -43 -29 -2 -12 -7 -22 -12 -22 -5 0 -7 7
-4 15 7 18 -7 20 -25 2 -11 -10 -13 -9 -9 3 3 8 14 16 26 18 26 4 27 8 8 27
-12 12 -16 11 -31 -5 -10 -11 -23 -20 -29 -20 -6 0 0 7 12 16 12 8 22 22 22
30 0 19 -4 18 -50 -12 -22 -15 -46 -24 -55 -20 -19 7 -45 -3 -45 -16 0 -6 8
-4 17 3 12 10 14 10 9 1 -4 -6 -20 -19 -35 -27 -27 -13 -203 -58 -306 -77 -47
-8 -297 -28 -302 -24 -2 1 10 12 27 24 23 17 34 20 54 12 14 -5 28 -6 30 -1 3
5 16 6 28 4 13 -2 34 0 48 5 22 8 18 11 -35 17 -41 6 -60 4 -63 -4 -2 -6 -8
-11 -14 -11 -6 0 12 24 39 53 41 43 53 65 63 110 15 64 4 156 -24 217 -9 19
-14 26 -10 15 17 -58 26 -136 21 -184 -8 -77 -63 -152 -164 -222 -55 -38 -74
-91 -49 -139 9 -18 16 -34 16 -35 0 -2 -27 -5 -59 -7 -64 -5 -140 -46 -149
-81 -4 -14 -11 -17 -31 -12 -42 10 -66 40 -120 148 -101 204 -168 443 -158
562 8 105 76 210 168 260 47 25 66 29 174 35 108 6 127 10 174 35 70 39 126
106 197 239 33 62 82 135 111 166 58 63 154 118 222 127 22 3 41 7 41 8 0 2
-29 32 -63 67 -64 64 -105 134 -149 256 -25 71 -36 279 -19 363 44 211 240
333 463 288z m1468 -821 c0 -5 -10 -3 -22 3 -20 11 -21 10 -10 -3 10 -13 9
-16 -6 -20 -15 -4 -17 0 -14 23 4 25 6 27 28 17 13 -6 24 -15 24 -20z m-140
-68 c0 -5 8 -7 18 -4 14 5 15 4 2 -5 -13 -9 -13 -11 0 -12 8 -1 24 -1 35 0 17
2 18 0 5 -9 -13 -10 -12 -11 5 -7 11 3 29 8 40 12 16 5 16 4 -3 -7 -18 -11
-20 -16 -10 -27 7 -7 -17 2 -54 20 -66 33 -83 49 -53 49 8 0 15 -4 15 -10z
m158 -69 c-15 -5 -19 4 -11 24 6 18 7 18 13 -1 4 -10 3 -21 -2 -23z m-14 -13
c6 -4 26 -5 45 -1 27 5 32 3 26 -8 -8 -12 -6 -12 8 0 12 9 17 10 17 2 0 -17
-31 -26 -40 -11 -4 7 -13 9 -19 5 -20 -12 -67 14 -68 38 -2 21 -2 21 9 2 6
-11 16 -23 22 -27z m-2338 -159 c1 -17 -2 -25 -6 -19 -6 9 -14 6 -29 -9 -38
-38 -41 -22 -3 19 20 21 37 39 37 40 0 0 0 -14 1 -31z m125 -79 c-14 -16 -27
-27 -30 -25 -2 3 1 11 7 17 7 7 12 20 12 29 0 12 6 16 18 12 17 -4 17 -7 -7
-33z m641 -1013 c-12 -7 -19 -17 -15 -22 4 -4 1 -6 -9 -2 -9 3 -24 -1 -35 -8
-21 -17 -57 -20 -48 -5 4 6 11 7 17 4 6 -4 13 -3 17 2 7 11 72 43 86 43 6 0 0
-5 -13 -12z m260 -39 c-5 -7 -12 -22 -14 -33 -2 -12 -6 -16 -10 -9 -7 10 17
54 29 54 3 0 1 -6 -5 -12z m-399 -15 c-7 -2 -13 -12 -13 -21 0 -15 -2 -15 -10
-2 -9 15 4 30 25 29 6 0 4 -3 -2 -6z m352 -63 c-4 -6 8 -10 27 -11 30 -1 30
-2 -11 -10 -50 -10 -87 -30 -117 -66 -20 -23 -23 -24 -70 -13 -75 18 -156 59
-150 77 3 8 1 11 -4 8 -6 -3 -10 -1 -10 5 0 14 71 5 115 -15 93 -42 119 -49
111 -30 -5 15 5 19 66 30 21 3 37 9 37 13 -2 12 1 22 7 22 3 0 2 -4 -1 -10z
m93 -56 c52 -36 12 -63 -95 -64 -91 0 -106 12 -56 45 54 36 116 44 151 19z
m-1013 -88 c19 -8 35 -19 35 -24 0 -37 -167 -80 -208 -53 -21 13 31 67 76 79
52 14 58 14 97 -2z"/>
<path d="M8390 2506 c-59 -33 -96 -119 -86 -201 11 -96 21 -96 21 0 0 89 1 95
31 132 113 139 301 39 439 -233 54 -108 77 -107 27 1 -66 139 -145 229 -254
288 -57 30 -135 36 -178 13z"/>
<path d="M9930 1798 c1 -14 34 -58 44 -58 9 0 -21 57 -34 65 -5 3 -10 0 -10
-7z"/>
<path d="M8120 1671 c108 -67 201 -213 201 -313 0 -125 -20 -164 -85 -161
-125 5 -295 139 -352 277 -21 50 -37 62 -25 18 26 -88 97 -178 194 -244 71
-48 125 -68 188 -68 59 0 82 25 99 106 20 94 -18 200 -107 306 -48 55 -117
108 -143 108 -8 0 5 -13 30 -29z"/>
<path d="M7610 1293 c1 -4 19 -21 41 -38 22 -16 58 -56 80 -88 40 -57 63 -73
38 -25 -26 49 -160 176 -159 151z"/>
<path d="M8663 733 c-35 -4 -41 -14 -20 -30 8 -6 20 -2 36 14 13 13 22 22 20
21 -2 0 -19 -3 -36 -5z"/>
<path d="M8070 663 c-56 -8 -71 -14 -64 -24 3 -6 0 -10 -7 -8 -30 4 -43 -3
-19 -10 14 -5 30 -5 35 -2 6 3 12 6 15 6 19 3 80 31 80 37 0 4 -3 7 -7 7 -5
-1 -19 -3 -33 -6z"/>
<path d="M7410 3168 c-1 -53 44 -368 51 -356 3 7 -4 83 -17 168 -26 177 -28
193 -14 185 14 -8 109 -138 156 -212 21 -35 42 -63 47 -63 4 0 7 17 7 38 0 25
-3 33 -9 23 -12 -18 -27 -7 -58 42 -35 57 -146 197 -155 197 -5 0 -8 -10 -8
-22z"/>
<path d="M6985 2843 c19 -50 95 -263 95 -267 0 -12 -34 -13 -62 -2 -97 40
-100 29 -23 -75 30 -41 55 -77 55 -81 0 -11 -28 -10 -52 3 -11 6 -22 8 -25 5
-7 -7 92 -56 113 -56 16 0 15 2 -3 23 -11 12 -32 44 -47 70 -15 26 -41 63 -58
82 -26 31 -28 50 -2 26 9 -8 92 -31 113 -31 18 0 13 21 -34 149 -25 67 -45
125 -45 128 0 7 53 -41 223 -201 71 -67 133 -122 138 -124 13 -5 11 16 -7 73
-9 28 -17 59 -18 69 -3 20 -26 36 -26 18 0 -5 7 -29 15 -53 20 -55 6 -69 -31
-32 -72 71 -314 293 -320 293 -3 0 -3 -8 1 -17z"/>
<path d="M7355 2779 c3 -19 13 -55 21 -81 16 -49 12 -73 -9 -62 -7 3 -1 -4 12
-15 29 -26 43 -19 30 16 -5 14 -14 45 -19 68 -5 23 -13 50 -17 61 -6 17 -5 17
10 5 9 -7 17 -20 17 -27 0 -8 3 -13 8 -12 4 1 22 -13 40 -31 37 -38 47 -37 32
3 -5 15 -10 42 -11 59 l-1 32 -9 -32 c-7 -22 -14 -31 -24 -27 -8 4 -15 9 -15
13 0 3 -16 19 -36 35 l-36 29 7 -34z"/>
<path d="M5962 2610 c-10 -17 -10 -20 3 -20 8 0 15 9 15 20 0 11 -1 20 -3 20
-1 0 -8 -9 -15 -20z"/>
<path d="M6225 2546 c17 -7 44 -16 60 -19 l30 -6 -31 14 c-17 8 -44 16 -60 20
l-29 5 30 -14z"/>
<path d="M6770 2503 c0 -3 14 -30 30 -60 17 -29 30 -55 30 -58 0 -14 -69 -1
-175 35 -66 22 -124 39 -129 37 -6 -2 55 -25 134 -51 80 -26 159 -53 175 -61
48 -22 49 -3 4 64 -31 47 -39 65 -29 71 9 6 8 11 -8 19 -24 13 -32 14 -32 4z"/>
<path d="M6018 2477 c12 -14 170 -130 292 -215 l35 -24 -26 23 c-14 13 -61 49
-103 79 -43 30 -108 77 -144 104 -37 28 -61 42 -54 33z"/>
<path d="M6865 2460 c22 -10 47 -19 55 -19 8 0 -5 8 -29 19 -24 11 -48 20 -55
19 -6 0 7 -9 29 -19z"/>
<path d="M6489 2141 c19 -17 32 -34 28 -37 -3 -4 -51 1 -105 10 -103 17 -139
20 -130 10 8 -8 225 -44 266 -44 42 0 41 14 -3 34 -19 9 -37 21 -40 26 -3 6
-16 15 -28 20 -14 7 -9 0 12 -19z"/>
<path d="M6220 2133 c0 -5 22 -22 48 -40 26 -17 78 -53 115 -78 37 -26 85 -57
107 -69 118 -66 152 -88 143 -97 -5 -5 -49 -13 -99 -17 l-89 -9 45 -20 c25
-11 89 -37 143 -58 53 -20 97 -43 97 -49 0 -12 -185 -74 -268 -91 -18 -4 -31
-9 -29 -12 3 -2 34 3 69 12 34 9 97 25 139 36 134 33 178 59 127 74 -36 11
-211 76 -223 83 -5 3 -16 7 -23 8 -36 6 -14 12 64 17 48 3 91 10 96 15 6 6 -6
17 -29 29 -81 43 -163 91 -173 103 -3 3 -27 19 -55 35 -115 66 -174 112 -163
123 9 9 5 12 -15 12 -15 0 -27 -3 -27 -7z"/>
<path d="M6280 1553 c-25 -9 -71 -25 -103 -36 -32 -11 -56 -22 -53 -24 6 -6
136 33 188 57 51 23 32 25 -32 3z"/>
<path d="M6015 1450 c-3 -5 3 -10 15 -10 12 0 18 5 15 10 -3 6 -10 10 -15 10
-5 0 -12 -4 -15 -10z"/>
<path d="M6075 1430 c11 -5 29 -8 40 -8 16 0 15 2 -5 8 -34 11 -60 11 -35 0z"/>
<path d="M6153 1413 c9 -2 25 -2 35 0 9 3 1 5 -18 5 -19 0 -27 -2 -17 -5z"/>
<path d="M6220 1408 c7 -8 152 -35 225 -43 33 -3 68 -8 78 -11 9 -3 17 -1 17
4 0 5 -26 12 -57 15 -32 4 -85 11 -118 16 -33 5 -80 13 -105 17 -25 4 -43 4
-40 2z"/>
</g>
</svg>
